<?xml version="1.0" encoding="UTF-8" standalone="no"?>
<!DOCTYPE svg PUBLIC "-//W3C//DTD SVG 1.1//EN"
 "http://www.w3.org/Graphics/SVG/1.1/DTD/svg11.dtd">
<!-- Generated by graphviz version 2.38.0 (20140413.2041)
 -->
<!-- Title: dma Pages: 1 -->
<svg width="244pt" height="383pt"
 viewBox="0.00 0.00 244.00 383.00" xmlns="http://www.w3.org/2000/svg" xmlns:xlink="http://www.w3.org/1999/xlink">
<g id="graph0" class="graph" transform="scale(1 1) rotate(0) translate(4 379)">
<title>dma</title>
<polygon fill="white" stroke="none" points="-4,4 -4,-379 240,-379 240,4 -4,4"/>
<g id="clust1" class="cluster"><title>cluster_dma</title>
<g id="a_clust1"><a xlink:href="dma.vhd" xlink:title="entity: dma">
<polygon fill="white" stroke="black" points="8,-8 8,-367 228,-367 228,-8 8,-8"/>
<text text-anchor="middle" x="47.5" y="-351.8" font-family="Times,serif" font-size="14.00">entity: dma</text>
</a>
</g>
</g>
<!-- if_dma -->
<g id="node1" class="node"><title>if_dma</title>
<polygon fill="#8db6cd" stroke="black" points="171.5,-336 64.5,-336 64.5,-332 60.5,-332 60.5,-328 64.5,-328 64.5,-291 60.5,-291 60.5,-287 64.5,-287 64.5,-283 171.5,-283 171.5,-336"/>
<polyline fill="none" stroke="black" points="64.5,-332 68.5,-332 68.5,-328 64.5,-328 "/>
<polyline fill="none" stroke="black" points="64.5,-291 68.5,-291 68.5,-287 64.5,-287 "/>
<text text-anchor="start" x="72.5" y="-320.8" font-family="Times,serif" font-size="14.00">instance: if_dma</text>
<text text-anchor="start" x="72.5" y="-305.8" font-family="Times,serif" font-size="14.00">entity: dma_if</text>
<text text-anchor="start" x="72.5" y="-290.8" font-family="Times,serif" font-size="14.00">line: 489</text>
</g>
<!-- g_mp_pll_sv_cmp -->
<g id="node2" class="node"><title>g_mp_pll_sv_cmp</title>
<polygon fill="#8db6cd" stroke="black" points="203,-247 33,-247 33,-243 29,-243 29,-239 33,-239 33,-202 29,-202 29,-198 33,-198 33,-194 203,-194 203,-247"/>
<polyline fill="none" stroke="black" points="33,-243 37,-243 37,-239 33,-239 "/>
<polyline fill="none" stroke="black" points="33,-202 37,-202 37,-198 33,-198 "/>
<text text-anchor="start" x="41" y="-231.8" font-family="Times,serif" font-size="14.00">instance: g_mp_pll_sv_cmp</text>
<text text-anchor="start" x="41" y="-216.8" font-family="Times,serif" font-size="14.00">entity: g_mp_pll_sv</text>
<text text-anchor="start" x="41" y="-201.8" font-family="Times,serif" font-size="14.00">line: 566</text>
</g>
<!-- if_dma&#45;&gt;g_mp_pll_sv_cmp -->
<!-- gc_comp_cmp -->
<g id="node3" class="node"><title>gc_comp_cmp</title>
<polygon fill="#8db6cd" stroke="black" points="192.5,-158 43.5,-158 43.5,-154 39.5,-154 39.5,-150 43.5,-150 43.5,-113 39.5,-113 39.5,-109 43.5,-109 43.5,-105 192.5,-105 192.5,-158"/>
<polyline fill="none" stroke="black" points="43.5,-154 47.5,-154 47.5,-150 43.5,-150 "/>
<polyline fill="none" stroke="black" points="43.5,-113 47.5,-113 47.5,-109 43.5,-109 "/>
<text text-anchor="start" x="51.5" y="-142.8" font-family="Times,serif" font-size="14.00">instance: gc_comp_cmp</text>
<text text-anchor="start" x="51.5" y="-127.8" font-family="Times,serif" font-size="14.00">entity: gc_comp</text>
<text text-anchor="start" x="51.5" y="-112.8" font-family="Times,serif" font-size="14.00">line: 591</text>
</g>
<!-- g_mp_pll_sv_cmp&#45;&gt;gc_comp_cmp -->
<!-- IC_1_Bank_B_Ctrl_cmp -->
<g id="node4" class="node"><title>IC_1_Bank_B_Ctrl_cmp</title>
<polygon fill="#8db6cd" stroke="black" points="220.5,-69 15.5,-69 15.5,-65 11.5,-65 11.5,-61 15.5,-61 15.5,-24 11.5,-24 11.5,-20 15.5,-20 15.5,-16 220.5,-16 220.5,-69"/>
<polyline fill="none" stroke="black" points="15.5,-65 19.5,-65 19.5,-61 15.5,-61 "/>
<polyline fill="none" stroke="black" points="15.5,-24 19.5,-24 19.5,-20 15.5,-20 "/>
<text text-anchor="start" x="23.5" y="-53.8" font-family="Times,serif" font-size="14.00">instance: IC_1_Bank_B_Ctrl_cmp</text>
<text text-anchor="start" x="23.5" y="-38.8" font-family="Times,serif" font-size="14.00">entity: IC_1_Bank_B_Ctrl</text>
<text text-anchor="start" x="23.5" y="-23.8" font-family="Times,serif" font-size="14.00">line: 631</text>
</g>
<!-- gc_comp_cmp&#45;&gt;IC_1_Bank_B_Ctrl_cmp -->
</g>
</svg>
