<?xml version="1.0" encoding="UTF-8" standalone="no"?>
<!DOCTYPE svg PUBLIC "-//W3C//DTD SVG 1.1//EN"
 "http://www.w3.org/Graphics/SVG/1.1/DTD/svg11.dtd">
<!-- Generated by graphviz version 2.38.0 (20140413.2041)
 -->
<!-- Title: ram_cache Pages: 1 -->
<svg width="236pt" height="116pt"
 viewBox="0.00 0.00 236.00 116.00" xmlns="http://www.w3.org/2000/svg" xmlns:xlink="http://www.w3.org/1999/xlink">
<g id="graph0" class="graph" transform="scale(1 1) rotate(0) translate(4 112)">
<title>ram_cache</title>
<polygon fill="white" stroke="none" points="-4,4 -4,-112 232,-112 232,4 -4,4"/>
<g id="clust1" class="cluster"><title>cluster_ram_cache</title>
<g id="a_clust1"><a xlink:href="ram_cache.vhd" xlink:title="entity: ram_cache">
<polygon fill="white" stroke="black" points="8,-8 8,-100 220,-100 220,-8 8,-8"/>
<text text-anchor="middle" x="65" y="-84.8" font-family="Times,serif" font-size="14.00">entity: ram_cache</text>
</a>
</g>
</g>
<!-- altsyncram_component -->
<g id="node1" class="node"><title>altsyncram_component</title>
<polygon fill="#8db6cd" stroke="black" points="212,-69 16,-69 16,-65 12,-65 12,-61 16,-61 16,-24 12,-24 12,-20 16,-20 16,-16 212,-16 212,-69"/>
<polyline fill="none" stroke="black" points="16,-65 20,-65 20,-61 16,-61 "/>
<polyline fill="none" stroke="black" points="16,-24 20,-24 20,-20 16,-20 "/>
<text text-anchor="start" x="24" y="-53.8" font-family="Times,serif" font-size="14.00">instance: altsyncram_component</text>
<text text-anchor="start" x="24" y="-38.8" font-family="Times,serif" font-size="14.00">entity: altsyncram</text>
<text text-anchor="start" x="24" y="-23.8" font-family="Times,serif" font-size="14.00">line: 62</text>
</g>
</g>
</svg>
